M48
; DRILL file {KiCad 8.0.3} date 2024-07-11T22:05:52+0300
; FORMAT={-:-/ absolute / inch / decimal}
; #@! TF.CreationDate,2024-07-11T22:05:52+03:00
; #@! TF.GenerationSoftware,Kicad,Pcbnew,8.0.3
; #@! TF.FileFunction,MixedPlating,1,2
FMAT,2
INCH
; #@! TA.AperFunction,Plated,PTH,ComponentDrill
T1C0.0320
; #@! TA.AperFunction,Plated,PTH,ComponentDrill
T2C0.0400
; #@! TA.AperFunction,Plated,PTH,ComponentDrill
T3C0.0560
; #@! TA.AperFunction,Plated,PTH,ComponentDrill
T4C0.0660
%
G90
G05
T1
X2.95Y-2.8
X2.95Y-3.0
X2.95Y-3.2
X3.45Y-2.8
X3.45Y-3.0
X3.45Y-3.2
X4.1Y-2.5
X4.15Y-4.0
X4.2Y-3.8
X4.5Y-2.5
X4.65Y-3.2
X4.65Y-3.4
X4.65Y-4.0
X4.65Y-4.4
X4.65Y-4.6
X4.7Y-3.8
X4.95Y-4.4
X4.95Y-4.6
X5.05Y-2.4
X5.05Y-2.8
X5.1Y-3.9
X5.15Y-3.2
X5.15Y-3.4
X5.15Y-3.7
X5.45Y-1.8
X5.45Y-2.0
X5.45Y-2.2
X5.45Y-2.6
X5.5Y-3.9
X5.55Y-2.4
X5.55Y-2.8
X5.65Y-3.7
X5.8Y-3.25
X5.8Y-3.75
X5.95Y-1.8
X5.95Y-2.0
X5.95Y-2.2
X5.95Y-2.6
X6.1Y-1.95
X6.1Y-2.45
X6.3Y-2.55
X6.3Y-3.05
X6.35Y-3.3
X6.85Y-3.3
X7.4Y-3.75
X7.4Y-4.25
X7.55Y-3.8
X7.55Y-4.1
X7.85Y-2.6
X7.95Y-2.8
X7.95Y-3.0
X8.05Y-3.8
X8.05Y-4.1
X8.35Y-2.6
X8.45Y-2.8
X8.45Y-3.0
T2
X3.0Y-3.5
X3.4Y-3.5
X4.9Y-3.6
X4.9Y-4.0
X5.055Y-3.0
X5.25Y-4.4
X5.55Y-4.4
X5.945Y-3.0
X5.955Y-4.3
X5.955Y-4.6
X6.755Y-2.0
X6.845Y-4.3
X6.845Y-4.6
X7.1Y-2.4
X7.3Y-2.4
X7.645Y-2.0
X8.1Y-3.4
X8.3Y-3.4
T3
X3.78Y-3.4798
X3.785Y-3.0698
X3.9472Y-2.9548
X3.9522Y-3.5998
X4.1639Y-3.5899
X4.1689Y-2.9597
X4.3165Y-3.4818
X4.3265Y-3.0778
X4.3856Y-3.2748
X7.0644Y-3.25
X7.1235Y-3.447
X7.1335Y-3.043
X7.2811Y-3.5651
X7.2861Y-2.9349
X7.4978Y-2.925
X7.5028Y-3.57
X7.665Y-3.455
X7.67Y-3.045
T4
X3.8Y-4.044
X3.8Y-4.2
X4.2Y-4.422
X4.2Y-4.578
X4.4Y-2.0
X4.556Y-2.0
X4.7Y-2.8
X4.856Y-2.8
X6.322Y-2.0
X6.478Y-2.0
X6.65Y-2.894
X6.65Y-3.05
X7.25Y-4.472
X7.25Y-4.628
M30
