%TF.GenerationSoftware,KiCad,Pcbnew,8.0.3*%
%TF.CreationDate,2024-07-11T22:05:08+03:00*%
%TF.ProjectId,main,6d61696e-2e6b-4696-9361-645f70636258,rev?*%
%TF.SameCoordinates,Original*%
%TF.FileFunction,Copper,L1,Top*%
%TF.FilePolarity,Positive*%
%FSLAX46Y46*%
G04 Gerber Fmt 4.6, Leading zero omitted, Abs format (unit mm)*
G04 Created by KiCad (PCBNEW 8.0.3) date 2024-07-11 22:05:08*
%MOMM*%
%LPD*%
G01*
G04 APERTURE LIST*
G04 Aperture macros list*
%AMOutline5P*
0 Free polygon, 5 corners , with rotation*
0 The origin of the aperture is its center*
0 number of corners: always 5*
0 $1 to $10 corner X, Y*
0 $11 Rotation angle, in degrees counterclockwise*
0 create outline with 5 corners*
4,1,5,$1,$2,$3,$4,$5,$6,$7,$8,$9,$10,$1,$2,$11*%
%AMOutline6P*
0 Free polygon, 6 corners , with rotation*
0 The origin of the aperture is its center*
0 number of corners: always 6*
0 $1 to $12 corner X, Y*
0 $13 Rotation angle, in degrees counterclockwise*
0 create outline with 6 corners*
4,1,6,$1,$2,$3,$4,$5,$6,$7,$8,$9,$10,$11,$12,$1,$2,$13*%
%AMOutline7P*
0 Free polygon, 7 corners , with rotation*
0 The origin of the aperture is its center*
0 number of corners: always 7*
0 $1 to $14 corner X, Y*
0 $15 Rotation angle, in degrees counterclockwise*
0 create outline with 7 corners*
4,1,7,$1,$2,$3,$4,$5,$6,$7,$8,$9,$10,$11,$12,$13,$14,$1,$2,$15*%
%AMOutline8P*
0 Free polygon, 8 corners , with rotation*
0 The origin of the aperture is its center*
0 number of corners: always 8*
0 $1 to $16 corner X, Y*
0 $17 Rotation angle, in degrees counterclockwise*
0 create outline with 8 corners*
4,1,8,$1,$2,$3,$4,$5,$6,$7,$8,$9,$10,$11,$12,$13,$14,$15,$16,$1,$2,$17*%
G04 Aperture macros list end*
%TA.AperFunction,ComponentPad*%
%ADD10C,2.000000*%
%TD*%
%TA.AperFunction,ComponentPad*%
%ADD11O,2.641600X1.320800*%
%TD*%
%TA.AperFunction,ComponentPad*%
%ADD12C,2.540000*%
%TD*%
%TA.AperFunction,ComponentPad*%
%ADD13O,5.029200X2.514600*%
%TD*%
%TA.AperFunction,ComponentPad*%
%ADD14C,3.149600*%
%TD*%
%TA.AperFunction,ComponentPad*%
%ADD15Outline8P,-1.574800X0.652304X-0.652304X1.574800X0.652304X1.574800X1.574800X0.652304X1.574800X-0.652304X0.652304X-1.574800X-0.652304X-1.574800X-1.574800X-0.652304X180.000000*%
%TD*%
%TA.AperFunction,ComponentPad*%
%ADD16C,2.200000*%
%TD*%
%TA.AperFunction,ComponentPad*%
%ADD17O,2.514600X5.029200*%
%TD*%
%TA.AperFunction,ComponentPad*%
%ADD18Outline8P,-1.270000X0.526051X-0.526051X1.270000X0.526051X1.270000X1.270000X0.526051X1.270000X-0.526051X0.526051X-1.270000X-0.526051X-1.270000X-1.270000X-0.526051X0.000000*%
%TD*%
%TA.AperFunction,ComponentPad*%
%ADD19C,1.320800*%
%TD*%
%TA.AperFunction,ComponentPad*%
%ADD20Outline8P,-0.660400X0.273547X-0.273547X0.660400X0.273547X0.660400X0.660400X0.273547X0.660400X-0.273547X0.273547X-0.660400X-0.273547X-0.660400X-0.660400X-0.273547X90.000000*%
%TD*%
%TA.AperFunction,Conductor*%
%ADD21C,1.000000*%
%TD*%
%TA.AperFunction,Conductor*%
%ADD22C,2.000000*%
%TD*%
G04 APERTURE END LIST*
D10*
%TO.P,R22,1,1*%
%TO.N,GND*%
X87630000Y-81280000D03*
%TO.P,R22,2,2*%
%TO.N,Net-(C9-Pad1)*%
X74930000Y-81280000D03*
%TD*%
%TO.P,R24,1,1*%
%TO.N,GND*%
X74930000Y-76200000D03*
%TO.P,R24,2,2*%
%TO.N,Net-(V2B-TK)*%
X87630000Y-76200000D03*
%TD*%
%TO.P,R23,1,1*%
%TO.N,Net-(C9-Pad1)*%
X74930000Y-71120000D03*
%TO.P,R23,2,2*%
%TO.N,Net-(V2B-TG)*%
X87630000Y-71120000D03*
%TD*%
%TO.P,R19,1,1*%
%TO.N,Net-(V1B-TA)*%
X151130000Y-45720000D03*
%TO.P,R19,2,2*%
%TO.N,Net-(B1-Pad+)*%
X138430000Y-45720000D03*
%TD*%
%TO.P,R18,1,1*%
%TO.N,Net-(V1B-TA)*%
X140970000Y-60960000D03*
%TO.P,R18,2,2*%
%TO.N,Net-(B1-Pad+)*%
X128270000Y-60960000D03*
%TD*%
D11*
%TO.P,D2,A,A*%
%TO.N,Net-(C8-Pad2)*%
X114300000Y-63500000D03*
%TO.P,D2,C,C*%
%TO.N,Net-(C9-Pad1)*%
X104140000Y-63500000D03*
%TD*%
D10*
%TO.P,R5,1,1*%
%TO.N,Net-(V1A-TA)*%
X151130000Y-55880000D03*
%TO.P,R5,2,2*%
%TO.N,Net-(B1-Pad+)*%
X138430000Y-55880000D03*
%TD*%
D12*
%TO.P,V2,1,TA*%
%TO.N,Net-(V2A-TA)*%
X96012000Y-88387000D03*
%TO.P,V2,2,TG*%
%TO.N,Net-(V2A-TG)*%
X100386000Y-91434000D03*
%TO.P,V2,3,TK*%
%TO.N,Net-(V2A-TK)*%
X105763000Y-91184000D03*
%TO.P,V2,4,H1*%
%TO.N,Net-(V2C-H1)*%
X109640000Y-88438000D03*
%TO.P,V2,5,H3*%
%TO.N,Net-(V2C-H3)*%
X111394000Y-83180000D03*
%TO.P,V2,6,TA*%
%TO.N,Net-(V2B-TA)*%
X109894000Y-78176000D03*
%TO.P,V2,7,TG*%
%TO.N,Net-(V2B-TG)*%
X105890000Y-75176000D03*
%TO.P,V2,8,TK*%
%TO.N,Net-(V2B-TK)*%
X100259000Y-75053000D03*
%TO.P,V2,9,H2*%
%TO.N,GND*%
X96139000Y-77973000D03*
%TD*%
D11*
%TO.P,D1,A,A*%
%TO.N,Net-(C3-Pad2)*%
X139700000Y-99060000D03*
%TO.P,D1,C,C*%
%TO.N,Net-(C4-Pad1)*%
X129540000Y-99060000D03*
%TD*%
D13*
%TO.P,J5,1,1*%
%TO.N,Net-(V1C-H3)*%
X168910000Y-77470000D03*
%TO.P,J5,2,2*%
%TO.N,Net-(V1C-H1)*%
X168910000Y-73507600D03*
%TD*%
%TO.P,J3,1,1*%
%TO.N,Net-(B1-PadAC2)*%
X106680000Y-116281200D03*
%TO.P,J3,2,2*%
%TO.N,Net-(B1-PadAC1)*%
X106680000Y-112318800D03*
%TD*%
D14*
%TO.P,C5,+,+*%
%TO.N,Net-(B1-Pad+)*%
X140970000Y-111760000D03*
D15*
%TO.P,C5,-,-*%
%TO.N,GND*%
X133350000Y-111760000D03*
%TD*%
D10*
%TO.P,R1,1,1*%
%TO.N,GND*%
X199390000Y-66040000D03*
%TO.P,R1,2,2*%
%TO.N,Net-(C1-Pad2)*%
X212090000Y-66040000D03*
%TD*%
%TO.P,R15,1,1*%
%TO.N,Net-(C6-Pad2)*%
X187960000Y-107950000D03*
%TO.P,R15,2,2*%
%TO.N,Net-(V1B-TG)*%
X187960000Y-95250000D03*
%TD*%
%TO.P,R7,1,1*%
%TO.N,GND*%
X147320000Y-82550000D03*
%TO.P,R7,2,2*%
%TO.N,Net-(C3-Pad2)*%
X147320000Y-95250000D03*
%TD*%
D16*
%TO.P,C1,1,1*%
%TO.N,Net-(C1-Pad1)*%
X171577000Y-50800000D03*
%TO.P,C1,2,2*%
%TO.N,Net-(C1-Pad2)*%
X194183000Y-50800000D03*
%TD*%
D13*
%TO.P,J2,1,1*%
%TO.N,Net-(V2A-TA)*%
X96520000Y-102717600D03*
%TO.P,J2,2,2*%
%TO.N,Net-(B1-Pad+)*%
X96520000Y-106680000D03*
%TD*%
D10*
%TO.P,R16,1,1*%
%TO.N,GND*%
X204470000Y-104140000D03*
%TO.P,R16,2,2*%
%TO.N,Net-(C6-Pad2)*%
X191770000Y-104140000D03*
%TD*%
%TO.P,R11,1,1*%
%TO.N,GND*%
X160020000Y-77470000D03*
%TO.P,R11,2,2*%
%TO.N,Net-(V1C-H1)*%
X160020000Y-64770000D03*
%TD*%
%TO.P,R21,1,1*%
%TO.N,GND*%
X140970000Y-71120000D03*
%TO.P,R21,2,2*%
%TO.N,Net-(C8-Pad2)*%
X128270000Y-71120000D03*
%TD*%
D17*
%TO.P,J4,1,1*%
%TO.N,Net-(V2C-H3)*%
X119380000Y-71120000D03*
%TO.P,J4,2,2*%
%TO.N,Net-(V2C-H1)*%
X123342400Y-71120000D03*
%TD*%
D16*
%TO.P,C3,1,1*%
%TO.N,Net-(C3-Pad1)*%
X173863000Y-109220000D03*
%TO.P,C3,2,2*%
%TO.N,Net-(C3-Pad2)*%
X151257000Y-109220000D03*
%TD*%
%TO.P,C4,1,1*%
%TO.N,Net-(C4-Pad1)*%
X124460000Y-101600000D03*
%TO.P,C4,2,2*%
%TO.N,GND*%
X124460000Y-91440000D03*
%TD*%
D10*
%TO.P,R10,1,1*%
%TO.N,GND*%
X119380000Y-96520000D03*
%TO.P,R10,2,2*%
%TO.N,Net-(V2A-TK)*%
X106680000Y-96520000D03*
%TD*%
%TO.P,R9,1,1*%
%TO.N,Net-(C4-Pad1)*%
X118110000Y-101600000D03*
%TO.P,R9,2,2*%
%TO.N,Net-(V2A-TG)*%
X105410000Y-101600000D03*
%TD*%
D12*
%TO.P,V1,1,TA*%
%TO.N,Net-(V1A-TA)*%
X194818000Y-77343000D03*
%TO.P,V1,2,TG*%
%TO.N,Net-(V1A-TG)*%
X190444000Y-74296000D03*
%TO.P,V1,3,TK*%
%TO.N,Net-(V1A-TK)*%
X185067000Y-74546000D03*
%TO.P,V1,4,H1*%
%TO.N,Net-(V1C-H1)*%
X181190000Y-77292000D03*
%TO.P,V1,5,H3*%
%TO.N,Net-(V1C-H3)*%
X179436000Y-82550000D03*
%TO.P,V1,6,TA*%
%TO.N,Net-(V1B-TA)*%
X180936000Y-87554000D03*
%TO.P,V1,7,TG*%
%TO.N,Net-(V1B-TG)*%
X184940000Y-90554000D03*
%TO.P,V1,8,TK*%
%TO.N,Net-(V1B-TK)*%
X190571000Y-90677000D03*
%TO.P,V1,9,H2*%
%TO.N,GND*%
X194691000Y-87757000D03*
%TD*%
D17*
%TO.P,J1,1,1*%
%TO.N,GND*%
X160578800Y-50800000D03*
%TO.P,J1,2,2*%
%TO.N,Net-(C1-Pad1)*%
X164541200Y-50800000D03*
%TD*%
D12*
%TO.P,C2,+,+*%
%TO.N,Net-(V1A-TK)*%
X180340000Y-60960000D03*
D18*
%TO.P,C2,-,-*%
%TO.N,GND*%
X185420000Y-60960000D03*
%TD*%
D19*
%TO.P,B1,+,+*%
%TO.N,Net-(B1-Pad+)*%
X125730000Y-116840000D03*
D20*
%TO.P,B1,-,-*%
%TO.N,GND*%
X125730000Y-111760000D03*
%TO.P,B1,AC1,AC1*%
%TO.N,Net-(B1-PadAC1)*%
X118110000Y-111760000D03*
%TO.P,B1,AC2,AC2*%
%TO.N,Net-(B1-PadAC2)*%
X118110000Y-116840000D03*
%TD*%
D10*
%TO.P,R8,1,1*%
%TO.N,GND*%
X143510000Y-93980000D03*
%TO.P,R8,2,2*%
%TO.N,Net-(C4-Pad1)*%
X130810000Y-93980000D03*
%TD*%
D16*
%TO.P,C6,1,1*%
%TO.N,Net-(C6-Pad1)*%
X173863000Y-116840000D03*
%TO.P,C6,2,2*%
%TO.N,Net-(C6-Pad2)*%
X151257000Y-116840000D03*
%TD*%
D17*
%TO.P,J7,1,1*%
%TO.N,Net-(V2B-TA)*%
X111760000Y-50800000D03*
%TO.P,J7,2,2*%
%TO.N,Net-(B1-Pad+)*%
X115722400Y-50800000D03*
%TD*%
D10*
%TO.P,R3,1,1*%
%TO.N,Net-(V1A-TA)*%
X151130000Y-50800000D03*
%TO.P,R3,2,2*%
%TO.N,Net-(B1-Pad+)*%
X138430000Y-50800000D03*
%TD*%
%TO.P,R20,1,1*%
%TO.N,Net-(V1B-TA)*%
X138430000Y-66040000D03*
%TO.P,R20,2,2*%
%TO.N,Net-(C8-Pad1)*%
X151130000Y-66040000D03*
%TD*%
D12*
%TO.P,C7,+,+*%
%TO.N,Net-(V1B-TK)*%
X205740000Y-86360000D03*
D18*
%TO.P,C7,-,-*%
%TO.N,GND*%
X210820000Y-86360000D03*
%TD*%
D16*
%TO.P,C9,1,1*%
%TO.N,Net-(C9-Pad1)*%
X76200000Y-88900000D03*
%TO.P,C9,2,2*%
%TO.N,GND*%
X86360000Y-88900000D03*
%TD*%
D10*
%TO.P,R14,1,1*%
%TO.N,Net-(V2C-H3)*%
X118110000Y-81280000D03*
%TO.P,R14,2,2*%
%TO.N,GND*%
X130810000Y-81280000D03*
%TD*%
D13*
%TO.P,J6,1,1*%
%TO.N,GND*%
X184150000Y-113588800D03*
%TO.P,J6,2,2*%
%TO.N,Net-(C6-Pad1)*%
X184150000Y-117551200D03*
%TD*%
D10*
%TO.P,R17,1,1*%
%TO.N,GND*%
X204470000Y-96520000D03*
%TO.P,R17,2,2*%
%TO.N,Net-(V1B-TK)*%
X191770000Y-96520000D03*
%TD*%
%TO.P,R4,1,1*%
%TO.N,GND*%
X154940000Y-49530000D03*
%TO.P,R4,2,2*%
%TO.N,Net-(V1A-TK)*%
X154940000Y-62230000D03*
%TD*%
D16*
%TO.P,C8,1,1*%
%TO.N,Net-(C8-Pad1)*%
X151003000Y-76200000D03*
%TO.P,C8,2,2*%
%TO.N,Net-(C8-Pad2)*%
X128397000Y-76200000D03*
%TD*%
D10*
%TO.P,R13,1,1*%
%TO.N,GND*%
X130810000Y-86360000D03*
%TO.P,R13,2,2*%
%TO.N,Net-(V2C-H1)*%
X118110000Y-86360000D03*
%TD*%
%TO.P,R12,1,1*%
%TO.N,Net-(V1C-H3)*%
X173990000Y-83820000D03*
%TO.P,R12,2,2*%
%TO.N,GND*%
X161290000Y-83820000D03*
%TD*%
%TO.P,R6,1,1*%
%TO.N,Net-(V1A-TA)*%
X201930000Y-76200000D03*
%TO.P,R6,2,2*%
%TO.N,Net-(C3-Pad1)*%
X214630000Y-76200000D03*
%TD*%
%TO.P,R2,1,1*%
%TO.N,Net-(C1-Pad2)*%
X214630000Y-71120000D03*
%TO.P,R2,2,2*%
%TO.N,Net-(V1A-TG)*%
X201930000Y-71120000D03*
%TD*%
D21*
%TO.N,GND*%
X143510000Y-93980000D02*
X143510000Y-80010000D01*
X143510000Y-80010000D02*
X146685000Y-76835000D01*
X146685000Y-76835000D02*
X152400000Y-82550000D01*
X140970000Y-71120000D02*
X146685000Y-76835000D01*
X147320000Y-82550000D02*
X152400000Y-82550000D01*
X154940000Y-82550000D02*
X160020000Y-77470000D01*
X161290000Y-85090000D02*
X154940000Y-91440000D01*
X161290000Y-83820000D02*
X161290000Y-85090000D01*
X154940000Y-91440000D02*
X154940000Y-110045730D01*
X154940000Y-82550000D02*
X154940000Y-91440000D01*
X154940000Y-110045730D02*
X153225730Y-111760000D01*
X152400000Y-82550000D02*
X154940000Y-82550000D01*
X147320000Y-117665730D02*
X147320000Y-121920000D01*
X153225730Y-111760000D02*
X147320000Y-117665730D01*
D22*
%TO.N,Net-(V1A-TK)*%
X158750000Y-60960000D02*
X180340000Y-60960000D01*
X154940000Y-62230000D02*
X157480000Y-62230000D01*
X157480000Y-62230000D02*
X158750000Y-60960000D01*
D21*
%TO.N,GND*%
X99253000Y-88707000D02*
X99253000Y-81087000D01*
X98016000Y-98740000D02*
X98016000Y-89944000D01*
X125400000Y-105080000D02*
X104356000Y-105080000D01*
X129262742Y-108942742D02*
X125400000Y-105080000D01*
X104356000Y-105080000D02*
X98016000Y-98740000D01*
X129262742Y-111760000D02*
X129262742Y-108942742D01*
X98016000Y-89944000D02*
X99253000Y-88707000D01*
D22*
X133350000Y-111760000D02*
X125730000Y-111760000D01*
%TO.N,Net-(B1-Pad+)*%
X97790000Y-107950000D02*
X96520000Y-106680000D01*
X121920000Y-110490000D02*
X119380000Y-107950000D01*
X119380000Y-107950000D02*
X97790000Y-107950000D01*
X121920000Y-116840000D02*
X121920000Y-110490000D01*
X125730000Y-116840000D02*
X121920000Y-116840000D01*
X135890000Y-116840000D02*
X140970000Y-111760000D01*
X125730000Y-116840000D02*
X135890000Y-116840000D01*
%TO.N,Net-(V2B-TA)*%
X109894000Y-52666000D02*
X111760000Y-50800000D01*
%TO.N,Net-(V1A-TK)*%
X183289999Y-72768999D02*
X185067000Y-74546000D01*
X183289999Y-71529999D02*
X183289999Y-72768999D01*
X180340000Y-68580000D02*
X183289999Y-71529999D01*
%TO.N,Net-(V1A-TG)*%
X193620000Y-71120000D02*
X190444000Y-74296000D01*
%TO.N,Net-(C1-Pad2)*%
X214630000Y-68580000D02*
X214630000Y-71120000D01*
X212090000Y-66040000D02*
X214630000Y-68580000D01*
X210820000Y-64770000D02*
X212090000Y-66040000D01*
X196850000Y-50800000D02*
X210820000Y-64770000D01*
%TO.N,Net-(V2A-TA)*%
X93980000Y-100177600D02*
X96012000Y-102209600D01*
X93980000Y-90419000D02*
X93980000Y-100177600D01*
X96012000Y-88387000D02*
X93980000Y-90419000D01*
%TO.N,Net-(C1-Pad2)*%
X196850000Y-50800000D02*
X194183000Y-50800000D01*
D21*
%TO.N,GND*%
X199390000Y-66040000D02*
X199390000Y-62230000D01*
X199390000Y-62230000D02*
X201295000Y-60325000D01*
%TO.N,Net-(B1-Pad+)*%
X128270000Y-60960000D02*
X134620000Y-60960000D01*
X134620000Y-60960000D02*
X134620000Y-73660000D01*
X134620000Y-55880000D02*
X134620000Y-60960000D01*
X133350000Y-50800000D02*
X134620000Y-49530000D01*
X115722400Y-50800000D02*
X133350000Y-50800000D01*
X115722400Y-50800000D02*
X121920000Y-50800000D01*
%TO.N,GND*%
X213360000Y-96520000D02*
X215900000Y-99060000D01*
X204470000Y-96520000D02*
X213360000Y-96520000D01*
X189230000Y-58420000D02*
X189230000Y-55880000D01*
X186690000Y-60960000D02*
X189230000Y-58420000D01*
X185420000Y-60960000D02*
X186690000Y-60960000D01*
%TO.N,Net-(C6-Pad2)*%
X179070000Y-107950000D02*
X187960000Y-107950000D01*
X170180000Y-116840000D02*
X179070000Y-107950000D01*
X151257000Y-116840000D02*
X170180000Y-116840000D01*
%TO.N,Net-(V2C-H3)*%
X115570000Y-71120000D02*
X119380000Y-71120000D01*
X113294000Y-73396000D02*
X115570000Y-71120000D01*
X113294000Y-81280000D02*
X113294000Y-73396000D01*
%TO.N,Net-(V2C-H1)*%
X118110000Y-86360000D02*
X118110000Y-88438000D01*
X118110000Y-88438000D02*
X121112000Y-88438000D01*
X109640000Y-88438000D02*
X118110000Y-88438000D01*
X123342400Y-86207600D02*
X123342400Y-82397600D01*
X121112000Y-88438000D02*
X123342400Y-86207600D01*
%TO.N,GND*%
X160578800Y-50800000D02*
X158750000Y-50800000D01*
X158750000Y-50800000D02*
X157480000Y-52070000D01*
X157480000Y-52070000D02*
X161290000Y-55880000D01*
X154940000Y-49530000D02*
X157480000Y-52070000D01*
X161290000Y-55880000D02*
X164401500Y-55880000D01*
X201295000Y-60325000D02*
X196850000Y-55880000D01*
X204470000Y-63500000D02*
X201295000Y-60325000D01*
X208788000Y-71628000D02*
X204470000Y-67310000D01*
X204470000Y-67310000D02*
X204470000Y-63500000D01*
X196850000Y-55880000D02*
X189230000Y-55880000D01*
X208788000Y-73660000D02*
X208788000Y-71628000D01*
X189230000Y-55880000D02*
X184150000Y-55880000D01*
X218440000Y-87630000D02*
X218440000Y-81280000D01*
X215900000Y-99060000D02*
X215900000Y-90170000D01*
X212090000Y-102870000D02*
X215900000Y-99060000D01*
X215900000Y-90170000D02*
X218440000Y-87630000D01*
X210820000Y-104140000D02*
X212090000Y-102870000D01*
X204470000Y-104140000D02*
X210820000Y-104140000D01*
X201371200Y-113588800D02*
X212090000Y-102870000D01*
X213360000Y-86360000D02*
X218440000Y-81280000D01*
X210820000Y-86360000D02*
X213360000Y-86360000D01*
X196291200Y-113588800D02*
X201371200Y-113588800D01*
X187960000Y-121920000D02*
X196291200Y-113588800D01*
X195580000Y-113588800D02*
X201371200Y-113588800D01*
X195580000Y-113588800D02*
X196291200Y-113588800D01*
X184150000Y-113588800D02*
X195580000Y-113588800D01*
%TO.N,Net-(C3-Pad2)*%
X147320000Y-95250000D02*
X147320000Y-99060000D01*
X151257000Y-102997000D02*
X151257000Y-109220000D01*
X147320000Y-99060000D02*
X151257000Y-102997000D01*
X139700000Y-99060000D02*
X147320000Y-99060000D01*
%TO.N,GND*%
X218440000Y-76200000D02*
X215900000Y-73660000D01*
X215900000Y-73660000D02*
X208788000Y-73660000D01*
X218440000Y-81280000D02*
X218440000Y-76200000D01*
%TO.N,Net-(V1B-TA)*%
X163830000Y-81280000D02*
X170180000Y-87630000D01*
X180860000Y-87630000D02*
X180936000Y-87554000D01*
X154940000Y-68580000D02*
X157480000Y-71120000D01*
X152374791Y-63500000D02*
X154940000Y-66065209D01*
X163830000Y-72390000D02*
X163830000Y-81280000D01*
X157480000Y-71120000D02*
X162560000Y-71120000D01*
X140970000Y-63500000D02*
X152374791Y-63500000D01*
X154940000Y-66065209D02*
X154940000Y-68580000D01*
X170180000Y-87630000D02*
X180860000Y-87630000D01*
X162560000Y-71120000D02*
X163830000Y-72390000D01*
%TO.N,Net-(V1C-H1)*%
X168910000Y-68580000D02*
X172720000Y-64770000D01*
X168910000Y-73507600D02*
X168910000Y-68580000D01*
%TO.N,Net-(C3-Pad1)*%
X213360000Y-76200000D02*
X214630000Y-76200000D01*
X208280000Y-87630000D02*
X208280000Y-81280000D01*
X194310000Y-101600000D02*
X208280000Y-87630000D01*
X182880000Y-101600000D02*
X194310000Y-101600000D01*
X175260000Y-109220000D02*
X182880000Y-101600000D01*
X208280000Y-81280000D02*
X213360000Y-76200000D01*
X173863000Y-109220000D02*
X175260000Y-109220000D01*
%TO.N,Net-(V1A-TA)*%
X190139313Y-77343000D02*
X194818000Y-77343000D01*
X187960000Y-75163687D02*
X190139313Y-77343000D01*
X187960000Y-73937258D02*
X187960000Y-75163687D01*
X186690000Y-72667258D02*
X187960000Y-73937258D01*
X186690000Y-67310000D02*
X186690000Y-72667258D01*
X182880000Y-63500000D02*
X186690000Y-67310000D01*
X156210000Y-58420000D02*
X157480000Y-58420000D01*
X158420000Y-57480000D02*
X180340000Y-57480000D01*
X154940000Y-57150000D02*
X156210000Y-58420000D01*
X180340000Y-57480000D02*
X182880000Y-60020000D01*
X182880000Y-60020000D02*
X182880000Y-63500000D01*
X154940000Y-55880000D02*
X154940000Y-57150000D01*
X157480000Y-58420000D02*
X158420000Y-57480000D01*
%TO.N,Net-(B1-Pad+)*%
X134620000Y-49530000D02*
X134620000Y-55880000D01*
X134620000Y-49530000D02*
X138430000Y-45720000D01*
%TO.N,Net-(C9-Pad1)*%
X86360000Y-63500000D02*
X104140000Y-63500000D01*
X82550000Y-67310000D02*
X86360000Y-63500000D01*
X74930000Y-71120000D02*
X78740000Y-67310000D01*
X82550000Y-78740000D02*
X82550000Y-67310000D01*
X78740000Y-67310000D02*
X82550000Y-67310000D01*
X77470000Y-78740000D02*
X82550000Y-78740000D01*
X74930000Y-81280000D02*
X77470000Y-78740000D01*
X82550000Y-86360000D02*
X82550000Y-78740000D01*
X81280000Y-87630000D02*
X82550000Y-86360000D01*
X77470000Y-87630000D02*
X81280000Y-87630000D01*
X76200000Y-88900000D02*
X77470000Y-87630000D01*
%TO.N,GND*%
X101600000Y-121920000D02*
X147320000Y-121920000D01*
X80010000Y-100330000D02*
X101600000Y-121920000D01*
X80010000Y-100330000D02*
X69850000Y-90170000D01*
X69850000Y-90170000D02*
X69850000Y-81280000D01*
X69850000Y-81280000D02*
X74930000Y-76200000D01*
X197993000Y-87757000D02*
X208788000Y-76962000D01*
X208788000Y-76962000D02*
X208788000Y-73660000D01*
X194691000Y-87757000D02*
X197993000Y-87757000D01*
%TO.N,Net-(B1-Pad+)*%
X140970000Y-105410000D02*
X140970000Y-111760000D01*
X137160000Y-101600000D02*
X140970000Y-105410000D01*
X134620000Y-73660000D02*
X137160000Y-76200000D01*
X137160000Y-76200000D02*
X137160000Y-101600000D01*
%TO.N,Net-(V1A-TA)*%
X154940000Y-55880000D02*
X151130000Y-55880000D01*
%TO.N,Net-(V2C-H1)*%
X123342400Y-82397600D02*
X123342400Y-71120000D01*
%TO.N,GND*%
X88265000Y-90805000D02*
X89535000Y-90805000D01*
X89535000Y-90805000D02*
X80010000Y-100330000D01*
X86360000Y-88900000D02*
X88265000Y-90805000D01*
X96139000Y-84201000D02*
X89535000Y-90805000D01*
X90551000Y-84201000D02*
X96139000Y-84201000D01*
X87630000Y-81280000D02*
X90551000Y-84201000D01*
X96139000Y-77973000D02*
X96139000Y-84201000D01*
X125730000Y-92710000D02*
X128270000Y-92710000D01*
X124460000Y-91440000D02*
X125730000Y-92710000D01*
X128270000Y-92710000D02*
X133350000Y-87630000D01*
X124460000Y-96520000D02*
X128270000Y-92710000D01*
X132080000Y-87630000D02*
X133350000Y-87630000D01*
X130810000Y-86360000D02*
X132080000Y-87630000D01*
X133350000Y-87630000D02*
X133350000Y-83820000D01*
X133350000Y-83820000D02*
X130810000Y-81280000D01*
X119380000Y-96520000D02*
X124460000Y-96520000D01*
%TO.N,Net-(C6-Pad1)*%
X174574200Y-117551200D02*
X173863000Y-116840000D01*
X184150000Y-117551200D02*
X174574200Y-117551200D01*
%TO.N,GND*%
X147320000Y-121920000D02*
X187960000Y-121920000D01*
%TO.N,Net-(V2A-TA)*%
X96012000Y-102209600D02*
X96520000Y-102717600D01*
%TO.N,Net-(B1-PadAC2)*%
X117551200Y-116281200D02*
X118110000Y-116840000D01*
D22*
X106680000Y-116281200D02*
X117551200Y-116281200D01*
D21*
%TO.N,Net-(B1-PadAC1)*%
X117551200Y-112318800D02*
X118110000Y-111760000D01*
D22*
X106680000Y-112318800D02*
X117551200Y-112318800D01*
D21*
%TO.N,Net-(C8-Pad2)*%
X128270000Y-67310000D02*
X128270000Y-71120000D01*
X114300000Y-63500000D02*
X124460000Y-63500000D01*
X124460000Y-63500000D02*
X128270000Y-67310000D01*
%TO.N,Net-(V1B-TA)*%
X142240000Y-60960000D02*
X140970000Y-60960000D01*
X144780000Y-58420000D02*
X142240000Y-60960000D01*
X144780000Y-52070000D02*
X144780000Y-58420000D01*
X151130000Y-45720000D02*
X144780000Y-52070000D01*
%TO.N,GND*%
X164401500Y-55880000D02*
X184150000Y-55880000D01*
X160578800Y-50800000D02*
X160578800Y-52057300D01*
%TO.N,Net-(V1C-H3)*%
X168910000Y-78740000D02*
X173990000Y-83820000D01*
X168910000Y-77470000D02*
X168910000Y-78740000D01*
%TO.N,Net-(V1C-H1)*%
X181190000Y-73240000D02*
X181190000Y-77292000D01*
X172720000Y-64770000D02*
X181190000Y-73240000D01*
X160020000Y-64770000D02*
X172720000Y-64770000D01*
%TO.N,GND*%
X99253000Y-81087000D02*
X96139000Y-77973000D01*
D22*
%TO.N,Net-(C1-Pad1)*%
X164541200Y-50800000D02*
X171577000Y-50800000D01*
%TO.N,Net-(V1A-TK)*%
X180340000Y-60960000D02*
X180340000Y-68580000D01*
D21*
%TO.N,Net-(C8-Pad1)*%
X151130000Y-76073000D02*
X151003000Y-76200000D01*
D22*
X151130000Y-66040000D02*
X151130000Y-76073000D01*
D21*
%TO.N,Net-(V1B-TA)*%
X140970000Y-63500000D02*
X138430000Y-66040000D01*
X140970000Y-60960000D02*
X140970000Y-63500000D01*
%TO.N,Net-(B1-Pad+)*%
X134620000Y-55880000D02*
X138430000Y-55880000D01*
X137160000Y-49530000D02*
X138430000Y-50800000D01*
X134620000Y-49530000D02*
X137160000Y-49530000D01*
%TO.N,Net-(V1C-H3)*%
X178166000Y-83820000D02*
X179436000Y-82550000D01*
X173990000Y-83820000D02*
X178166000Y-83820000D01*
%TO.N,Net-(C8-Pad2)*%
X128270000Y-76073000D02*
X128397000Y-76200000D01*
X128270000Y-71120000D02*
X128270000Y-76073000D01*
%TO.N,Net-(V2C-H3)*%
X116840000Y-81280000D02*
X113294000Y-81280000D01*
X118110000Y-81280000D02*
X116840000Y-81280000D01*
%TO.N,Net-(V1B-TK)*%
X201423000Y-90677000D02*
X205740000Y-86360000D01*
X190571000Y-90677000D02*
X201423000Y-90677000D01*
%TO.N,Net-(C4-Pad1)*%
X129540000Y-95250000D02*
X130810000Y-93980000D01*
X129540000Y-99060000D02*
X129540000Y-95250000D01*
X127000000Y-101600000D02*
X129540000Y-99060000D01*
X124460000Y-101600000D02*
X127000000Y-101600000D01*
X118110000Y-101600000D02*
X124460000Y-101600000D01*
%TO.N,Net-(C6-Pad2)*%
X187960000Y-107950000D02*
X191770000Y-104140000D01*
%TO.N,Net-(V1B-TG)*%
X184940000Y-92230000D02*
X187960000Y-95250000D01*
X184940000Y-90554000D02*
X184940000Y-92230000D01*
%TO.N,Net-(V1B-TK)*%
X190571000Y-95321000D02*
X191770000Y-96520000D01*
X190571000Y-90677000D02*
X190571000Y-95321000D01*
D22*
%TO.N,Net-(V1A-TG)*%
X201930000Y-71120000D02*
X193620000Y-71120000D01*
D21*
%TO.N,Net-(V1A-TA)*%
X200787000Y-77343000D02*
X201930000Y-76200000D01*
X194818000Y-77343000D02*
X200787000Y-77343000D01*
D22*
%TO.N,Net-(V2B-TA)*%
X109894000Y-78176000D02*
X109894000Y-52666000D01*
D21*
%TO.N,Net-(V2A-TG)*%
X100386000Y-96576000D02*
X105410000Y-101600000D01*
X100386000Y-91434000D02*
X100386000Y-96576000D01*
%TO.N,Net-(V2A-TK)*%
X105763000Y-95603000D02*
X106680000Y-96520000D01*
X105763000Y-91184000D02*
X105763000Y-95603000D01*
%TO.N,Net-(V2B-TK)*%
X88777000Y-75053000D02*
X100259000Y-75053000D01*
X87630000Y-76200000D02*
X88777000Y-75053000D01*
%TO.N,Net-(V2B-TG)*%
X101834000Y-71120000D02*
X105890000Y-75176000D01*
X87630000Y-71120000D02*
X101834000Y-71120000D01*
%TO.N,Net-(V2C-H3)*%
X113294000Y-81280000D02*
X111394000Y-83180000D01*
%TO.N,Net-(V1A-TA)*%
X154940000Y-52070000D02*
X154940000Y-55880000D01*
X153670000Y-50800000D02*
X154940000Y-52070000D01*
X151130000Y-50800000D02*
X153670000Y-50800000D01*
%TO.N,GND*%
X105132742Y-99060000D02*
X121920000Y-99060000D01*
X121920000Y-99060000D02*
X124460000Y-96520000D01*
X102756000Y-96683258D02*
X105132742Y-99060000D01*
X99253000Y-81087000D02*
X102756000Y-84590000D01*
X102756000Y-84590000D02*
X102756000Y-96683258D01*
%TD*%
M02*
